<svg xmlns="http://www.w3.org/2000/svg" viewBox="0 0 1200 675" width="1200" height="675">
  <defs>
    <linearGradient id="sky" x1="0" y1="0" x2="0" y2="1">
      <stop offset="0" stop-color="#050810"/>
      <stop offset=".55" stop-color="#0a1226"/>
      <stop offset="1" stop-color="#141c38"/>
    </linearGradient>
    <linearGradient id="title" x1="0" y1="0" x2="0" y2="1">
      <stop offset=".2" stop-color="#fff6df"/>
      <stop offset=".7" stop-color="#ffc966"/>
      <stop offset="1" stop-color="#e89b1c"/>
    </linearGradient>
    <radialGradient id="moonglow" cx=".5" cy=".5" r=".5">
      <stop offset="0" stop-color="#fdf6d8" stop-opacity=".5"/>
      <stop offset="1" stop-color="#fdf6d8" stop-opacity="0"/>
    </radialGradient>
  </defs>
  <rect width="1200" height="675" fill="url(#sky)"/>
  <circle cx="180" cy="90" r="2" fill="#fff" opacity=".8"/>
  <circle cx="320" cy="150" r="1.5" fill="#fff" opacity=".55"/>
  <circle cx="520" cy="70" r="2" fill="#fff" opacity=".7"/>
  <circle cx="700" cy="130" r="1.5" fill="#fff" opacity=".5"/>
  <circle cx="240" cy="240" r="1.5" fill="#fff" opacity=".45"/>
  <circle cx="840" cy="60" r="2" fill="#fff" opacity=".65"/>
  <circle cx="80" cy="170" r="1.5" fill="#fff" opacity=".5"/>
  <circle cx="1120" cy="260" r="1.5" fill="#fff" opacity=".5"/>
  <circle cx="960" cy="320" r="1.5" fill="#fff" opacity=".4"/>
  <circle cx="60" cy="330" r="1.5" fill="#fff" opacity=".4"/>
  <circle cx="1010" cy="130" r="90" fill="url(#moonglow)"/>
  <circle cx="1010" cy="130" r="46" fill="#f2e6c2"/>
  <circle cx="1024" cy="116" r="7" fill="#ddd0a4"/>
  <circle cx="996" cy="140" r="10" fill="#e2d5ab"/>
  <text x="600" y="320" text-anchor="middle" font-family="Baloo Thambi 2, Tamil Sangam MN, Noto Sans Tamil, sans-serif" font-weight="800" font-size="150" fill="url(#title)">கடைசி பஸ்</text>
  <text x="600" y="392" text-anchor="middle" font-family="Inter, Helvetica, Arial, sans-serif" font-weight="600" font-size="34" letter-spacing="18" fill="#e8e8f0">KADAISI BUS</text>
  <text x="600" y="446" text-anchor="middle" font-family="Inter, Helvetica, Arial, sans-serif" font-style="italic" font-size="26" fill="#9aa0b4">Tamil songs for the last bus home.</text>
  <g>
    <rect x="60" y="500" width="90" height="120" fill="#070c1c"/>
    <rect x="170" y="460" width="60" height="160" fill="#070c1c"/>
    <rect x="250" y="530" width="110" height="90" fill="#070c1c"/>
    <rect x="900" y="470" width="70" height="150" fill="#070c1c"/>
    <rect x="990" y="540" width="120" height="80" fill="#070c1c"/>
    <rect x="1130" y="490" width="70" height="130" fill="#070c1c"/>
    <rect x="76" y="516" width="8" height="10" fill="#ffcf6e" opacity=".55"/>
    <rect x="110" y="545" width="8" height="10" fill="#ffcf6e" opacity=".45"/>
    <rect x="185" y="480" width="8" height="10" fill="#ffcf6e" opacity=".55"/>
    <rect x="275" y="550" width="8" height="10" fill="#ffcf6e" opacity=".45"/>
    <rect x="915" y="490" width="8" height="10" fill="#ffcf6e" opacity=".5"/>
    <rect x="1015" y="560" width="8" height="10" fill="#ffcf6e" opacity=".45"/>
    <rect x="1148" y="510" width="8" height="10" fill="#ffcf6e" opacity=".55"/>
  </g>
  <rect x="0" y="620" width="1200" height="55" fill="#06080f"/>
  <g fill="#c9a94e" opacity=".55">
    <rect x="40" y="645" width="60" height="5" rx="2"/>
    <rect x="180" y="645" width="60" height="5" rx="2"/>
    <rect x="320" y="645" width="60" height="5" rx="2"/>
    <rect x="460" y="645" width="60" height="5" rx="2"/>
    <rect x="600" y="645" width="60" height="5" rx="2"/>
    <rect x="740" y="645" width="60" height="5" rx="2"/>
    <rect x="880" y="645" width="60" height="5" rx="2"/>
    <rect x="1020" y="645" width="60" height="5" rx="2"/>
    <rect x="1160" y="645" width="40" height="5" rx="2"/>
  </g>
  <g transform="translate(480,470)">
    <rect x="0" y="0" width="240" height="130" rx="14" fill="#1e2330" stroke="#454e63" stroke-width="4"/>
    <rect x="22" y="18" width="196" height="46" rx="8" fill="#f7ecd4"/>
    <rect x="22" y="18" width="196" height="15" rx="7" fill="#ffb000"/>
    <rect x="46" y="74" width="148" height="40" rx="20" fill="#0b0d14"/>
    <circle cx="76" cy="94" r="14" fill="#efe6d2"/>
    <circle cx="76" cy="94" r="5" fill="#0b0d14"/>
    <circle cx="164" cy="94" r="14" fill="#efe6d2"/>
    <circle cx="164" cy="94" r="5" fill="#0b0d14"/>
    <rect x="96" y="88" width="48" height="12" fill="#4a3421"/>
  </g>
</svg>
